<svg width="100" height="100" viewBox="60 0 560 600" xmlns="http://www.w3.org/2000/svg">
<defs>
  <style>
    .ring { fill: none; stroke: #3b82f6; }
    .ring-dim { fill: none; stroke: #1e3a5f; }
    .dot { fill: #3b82f6; }
    .scan { fill: none; stroke: #22c55e; stroke-width: 2; }
    .eye-fill { fill: #0e1829; }
    .iris { fill: #3b82f6; }
    .pupil { fill: #070d1a; }
    .glint { fill: #f0f6ff; }
    .corner { fill: none; stroke: #3b82f6; stroke-width: 3; stroke-linecap: round; }
  </style>
</defs>

<circle cx="340" cy="300" r="260" class="ring-dim" stroke-width="1"/>
<circle cx="340" cy="300" r="230" class="ring" stroke-width="2" stroke-dasharray="4 8"/>

<circle cx="340" cy="70" r="6" class="dot"/>
<circle cx="570" cy="300" r="6" class="dot"/>
<circle cx="340" cy="530" r="6" class="dot"/>
<circle cx="110" cy="300" r="6" class="dot"/>

<path d="M 170 300 Q 255 195 340 195 Q 425 195 510 300 Q 425 405 340 405 Q 255 405 170 300 Z" class="eye-fill" stroke="#3b82f6" stroke-width="3"/>

<circle cx="340" cy="300" r="72" class="iris"/>
<circle cx="340" cy="300" r="72" fill="none" stroke="#1d3a6e" stroke-width="5"/>

<circle cx="340" cy="300" r="38" class="pupil"/>
<circle cx="360" cy="280" r="5" class="glint" opacity="0.7"/>
<circle cx="340" cy="300" r="6" fill="#22c55e"/>

<line x1="178" y1="300" x2="262" y2="300" class="scan"/>
<line x1="418" y1="300" x2="502" y2="300" class="scan"/>

<polyline points="175,245 175,205 215,205" class="corner"/>
<polyline points="505,245 505,205 465,205" class="corner"/>
<polyline points="175,355 175,395 215,395" class="corner"/>
<polyline points="505,355 505,395 465,395" class="corner"/>
</svg>
